<?xml version="1.0" standalone="no"?>
<!DOCTYPE svg PUBLIC "-//W3C//DTD SVG 20010904//EN"
 "http://www.w3.org/TR/2001/REC-SVG-20010904/DTD/svg10.dtd">
<svg version="1.0" xmlns="http://www.w3.org/2000/svg"
 width="260.000000pt" height="260.000000pt" viewBox="0 0 260.000000 260.000000"
 preserveAspectRatio="xMidYMid meet">
<metadata>
Created by potrace 1.11, written by Peter Selinger 2001-2013
</metadata>
<g transform="translate(0.000000,260.000000) scale(0.100000,-0.100000)"
fill="#000000" stroke="none">
<path d="M0 1300 l0 -1300 1300 0 1300 0 0 1300 0 1300 -1300 0 -1300 0 0
-1300z m1615 1090 c134 -16 317 -55 430 -93 l100 -33 3 -247 2 -247 -29 0
c-19 0 -53 16 -95 45 -258 180 -637 252 -871 164 -137 -51 -196 -187 -120
-277 43 -51 125 -78 445 -148 313 -67 486 -140 601 -254 107 -105 151 -218
152 -390 2 -185 -50 -309 -182 -440 -130 -128 -261 -196 -472 -242 -93 -20
-131 -23 -349 -22 -189 0 -266 4 -338 17 -96 18 -287 68 -344 91 -18 7 -54 21
-80 30 l-48 18 0 254 0 254 33 0 c23 0 52 -14 99 -49 177 -128 415 -215 648
-236 83 -8 250 9 311 30 67 24 125 70 143 115 30 76 17 137 -41 191 -56 53
-119 73 -412 134 -267 56 -406 107 -538 201 -79 57 -127 112 -168 199 -42 90
-55 152 -55 274 0 170 52 292 172 408 140 134 327 219 553 252 85 12 344 13
450 1z"/>
</g>
</svg>
