<svg version="1" xmlns="http://www.w3.org/2000/svg" width="346.667" height="346.667" viewBox="0 0 260.000000 260.000000"><path d="M0 130v130h260V0H0v130zM161.5 21c13.4 1.6 31.7 5.5 43 9.3l10 3.3.3 24.7.2 24.7h-2.9c-1.9 0-5.3-1.6-9.5-4.5-25.8-18-63.7-25.2-87.1-16.4-13.7 5.1-19.6 18.7-12 27.7 4.3 5.1 12.5 7.8 44.5 14.8 31.3 6.7 48.6 14 60.1 25.4 10.7 10.5 15.1 21.8 15.2 39 .2 18.5-5 30.9-18.2 44-13 12.8-26.1 19.6-47.2 24.2-9.3 2-13.1 2.3-34.9 2.2-18.9 0-26.6-.4-33.8-1.7-9.6-1.8-28.7-6.8-34.4-9.1-1.8-.7-5.4-2.1-8-3l-4.8-1.8V173h3.3c2.3 0 5.2 1.4 9.9 4.9 17.7 12.8 41.5 21.5 64.8 23.6 8.3.8 25-.9 31.1-3 6.7-2.4 12.5-7 14.3-11.5 3-7.6 1.7-13.7-4.1-19.1-5.6-5.3-11.9-7.3-41.2-13.4-26.7-5.6-40.6-10.7-53.8-20.1-7.9-5.7-12.7-11.2-16.8-19.9-4.2-9-5.5-15.2-5.5-27.4 0-17 5.2-29.2 17.2-40.8 14-13.4 32.7-21.9 55.3-25.2 8.5-1.2 34.4-1.3 45-.1z"/></svg>